<svg width="35" height="24" viewBox="0 0 35 24" fill="none" xmlns="http://www.w3.org/2000/svg">
<rect x="0.5" y="0.5" width="34" height="23" rx="1.5" fill="#FCFCFF" stroke="#9EA4AE"/>
<path fill-rule="evenodd" clip-rule="evenodd" d="M9.90001 15.2402H8.34439C8.23794 15.2402 8.1474 15.3176 8.1308 15.4227L7.50163 19.4117C7.48913 19.4905 7.55009 19.5614 7.62993 19.5614H8.37259C8.47905 19.5614 8.56958 19.484 8.58618 19.3788L8.75588 18.3029C8.77225 18.1975 8.863 18.1202 8.96924 18.1202H9.46169C10.4864 18.1202 11.0778 17.6243 11.2323 16.6417C11.3019 16.2118 11.2353 15.874 11.0339 15.6374C10.8129 15.3777 10.4206 15.2402 9.90001 15.2402ZM10.0795 16.6972C9.99443 17.2554 9.56792 17.2554 9.15553 17.2554H8.92078L9.08547 16.2129C9.09525 16.1499 9.14984 16.1035 9.21353 16.1035H9.32112C9.60204 16.1035 9.86706 16.1035 10.004 16.2636C10.0856 16.3592 10.1106 16.5011 10.0795 16.6972ZM14.5501 16.6793H13.8052C13.7417 16.6793 13.6869 16.7257 13.6771 16.7888L13.6441 16.9971L13.592 16.9216C13.4308 16.6875 13.0712 16.6093 12.7122 16.6093C11.889 16.6093 11.1859 17.2328 11.049 18.1074C10.9778 18.5436 11.079 18.9608 11.3264 19.2517C11.5535 19.5192 11.8783 19.6307 12.2647 19.6307C12.928 19.6307 13.2959 19.2041 13.2959 19.2041L13.2626 19.4112C13.2501 19.4903 13.3111 19.5613 13.3904 19.5613H14.0615C14.1682 19.5613 14.2582 19.4839 14.2751 19.3787L14.6777 16.829C14.6904 16.7506 14.6297 16.6793 14.5501 16.6793ZM13.5117 18.1292C13.4398 18.5548 13.102 18.8405 12.6713 18.8405C12.455 18.8405 12.282 18.7711 12.1711 18.6396C12.061 18.5091 12.0191 18.3232 12.0541 18.1162C12.1213 17.6942 12.4647 17.3993 12.889 17.3993C13.1004 17.3993 13.2724 17.4695 13.3857 17.6021C13.4992 17.7361 13.5442 17.9231 13.5117 18.1292ZM17.769 16.6792H18.5176C18.6224 16.6792 18.6836 16.7968 18.624 16.8828L16.1342 20.4767C16.0939 20.5349 16.0275 20.5695 15.9565 20.5695H15.2089C15.1036 20.5695 15.0421 20.451 15.1031 20.3648L15.8783 19.2705L15.0538 16.8507C15.0253 16.7666 15.0874 16.6792 15.1769 16.6792H15.9124C16.008 16.6792 16.0923 16.7419 16.1199 16.8334L16.5575 18.2949L17.59 16.774C17.6304 16.7147 17.6976 16.6792 17.769 16.6792Z" fill="#253B80"/>
<path fill-rule="evenodd" clip-rule="evenodd" d="M25.8854 19.4119L26.5238 15.3499C26.5336 15.2869 26.5882 15.2404 26.6517 15.2402H27.3705C27.4498 15.2402 27.5108 15.3114 27.4982 15.3901L26.8687 19.379C26.8522 19.4842 26.7617 19.5616 26.6551 19.5616H26.0132C25.9338 19.5616 25.8729 19.4907 25.8854 19.4119ZM20.996 15.2404H19.4401C19.3339 15.2404 19.2434 15.3178 19.2267 15.4229L18.5976 19.4119C18.5851 19.4907 18.646 19.5616 18.7255 19.5616H19.5238C19.598 19.5616 19.6615 19.5075 19.6731 19.4338L19.8516 18.3031C19.868 18.1977 19.9587 18.1205 20.065 18.1205H20.5572C21.5821 18.1205 22.1734 17.6246 22.328 16.6419C22.3978 16.212 22.3308 15.8742 22.1295 15.6376C21.9085 15.3779 21.5166 15.2404 20.996 15.2404ZM21.1755 16.6974C21.0906 17.2556 20.6641 17.2556 20.2515 17.2556H20.017L20.1819 16.2131C20.1917 16.1501 20.2458 16.1037 20.3097 16.1037H20.4173C20.698 16.1037 20.9633 16.1037 21.1001 16.2638C21.1818 16.3594 21.2066 16.5013 21.1755 16.6974ZM25.6457 16.6795H24.9013C24.8373 16.6795 24.783 16.7259 24.7734 16.789L24.7404 16.9973L24.6881 16.9218C24.5269 16.6877 24.1675 16.6095 23.8085 16.6095C22.9853 16.6095 22.2824 17.233 22.1455 18.1076C22.0745 18.5438 22.1753 18.961 22.4228 19.2519C22.6502 19.5194 22.9746 19.6309 23.3611 19.6309C24.0243 19.6309 24.3921 19.2043 24.3921 19.2043L24.359 19.4114C24.3464 19.4906 24.4074 19.5615 24.4873 19.5615H25.158C25.2642 19.5615 25.3548 19.4841 25.3714 19.3789L25.7742 16.8292C25.7865 16.7508 25.7256 16.6795 25.6457 16.6795ZM24.6074 18.1294C24.5359 18.555 24.1977 18.8407 23.7669 18.8407C23.551 18.8407 23.3777 18.7713 23.2666 18.6398C23.1565 18.5093 23.1152 18.3234 23.1498 18.1165C23.2173 17.6945 23.5603 17.3995 23.9845 17.3995C24.1961 17.3995 24.368 17.4697 24.4814 17.6023C24.5953 17.7363 24.6403 17.9233 24.6074 18.1294Z" fill="#179BD7"/>
<path d="M15.6571 13.8138L15.8484 12.5991L15.4224 12.5892H13.3882L14.8019 3.62534C14.8062 3.59828 14.8205 3.57305 14.8413 3.55513C14.8622 3.53722 14.8889 3.52734 14.9167 3.52734H18.3467C19.4855 3.52734 20.2713 3.7643 20.6816 4.232C20.8739 4.45141 20.9964 4.68068 21.0557 4.933C21.1178 5.19776 21.1189 5.51406 21.0582 5.89985L21.0538 5.92801V6.1752L21.2462 6.28418C21.4082 6.37011 21.5368 6.46848 21.6356 6.58111C21.8002 6.7687 21.9066 7.00712 21.9516 7.28978C21.998 7.5805 21.9826 7.92643 21.9066 8.31807C21.8188 8.76859 21.6769 9.16096 21.4854 9.48202C21.309 9.77785 21.0845 10.0232 20.818 10.2134C20.5635 10.394 20.261 10.5312 19.9191 10.619C19.5878 10.7052 19.2101 10.7488 18.7958 10.7488H18.5288C18.338 10.7488 18.1525 10.8175 18.007 10.9408C17.8611 11.0665 17.7645 11.2383 17.7349 11.4263L17.7148 11.5357L17.3769 13.6767L17.3616 13.7553C17.3576 13.7802 17.3506 13.7927 17.3404 13.8011C17.3312 13.8087 17.3181 13.8138 17.3052 13.8138H15.6571Z" fill="#253B80"/>
<path d="M21.4281 5.95508C21.4179 6.02053 21.4062 6.08745 21.3931 6.15619C20.9407 8.47861 19.3932 9.28091 17.4166 9.28091H16.4103C16.1686 9.28091 15.965 9.45642 15.9273 9.69484L15.412 12.9626L15.2661 13.8888C15.2416 14.0453 15.3623 14.1865 15.5202 14.1865H17.3052C17.5165 14.1865 17.696 14.0329 17.7293 13.8245L17.7469 13.7337L18.083 11.6011L18.1045 11.4841C18.1374 11.275 18.3173 11.1214 18.5286 11.1214H18.7956C20.5249 11.1214 21.8787 10.4193 22.2743 8.38756C22.4396 7.53882 22.354 6.83014 21.9167 6.33172C21.7843 6.18143 21.6201 6.05673 21.4281 5.95508Z" fill="#179BD7"/>
<path d="M20.9549 5.76783C20.8859 5.74771 20.8145 5.72943 20.7414 5.71297C20.6679 5.69689 20.5925 5.68263 20.515 5.6702C20.2437 5.62631 19.9464 5.60547 19.6279 5.60547H16.9395C16.8732 5.60547 16.8104 5.62046 16.7541 5.64752C16.6301 5.70712 16.538 5.82451 16.5157 5.96822L15.9437 9.59062L15.9272 9.69629C15.9649 9.45787 16.1686 9.28234 16.4103 9.28234H17.4166C19.3931 9.28234 20.9407 8.47969 21.393 6.15764C21.4065 6.08889 21.4179 6.02197 21.4281 5.95652C21.3137 5.89582 21.1897 5.84389 21.0562 5.79964C21.0234 5.78867 20.9894 5.77807 20.9549 5.76783Z" fill="#222D65"/>
<path d="M16.5156 5.96769C16.5379 5.82397 16.6301 5.70659 16.754 5.64735C16.8107 5.62029 16.8733 5.6053 16.9394 5.6053H19.6279C19.9464 5.6053 20.2437 5.62614 20.5149 5.67002C20.5925 5.68246 20.6679 5.69672 20.7414 5.7128C20.8145 5.72927 20.8858 5.74755 20.9549 5.76766C20.9893 5.7779 21.0233 5.7885 21.0565 5.79911C21.19 5.84335 21.314 5.89565 21.4284 5.95598C21.5631 5.09774 21.4274 4.51339 20.9634 3.98425C20.4518 3.40173 19.5284 3.15234 18.3469 3.15234H14.9168C14.6755 3.15234 14.4697 3.32786 14.4323 3.56665L13.0037 12.6226C12.9755 12.8018 13.1137 12.9635 13.2943 12.9635H15.412L15.9437 9.59008L16.5156 5.96769Z" fill="#253B80"/>
</svg>
