<svg width="25" height="24" viewBox="0 0 25 24" fill="none" xmlns="http://www.w3.org/2000/svg">
<path d="M2.16675 22V15.75H3.41675V19.865L7.91675 15.365L8.80175 16.25L4.30175 20.75H8.41675V22H2.16675ZM15.9167 22V20.75H20.0317L15.5317 16.25L16.4167 15.365L20.9167 19.865V15.75H22.1667V22H15.9167ZM7.91675 8.635L3.41675 4.135V8.25H2.16675V2H8.41675V3.25H4.30175L8.80175 7.75L7.91675 8.635ZM16.4167 8.635L15.5317 7.75L20.0317 3.25H15.9167V2H22.1667V8.25H20.9167V4.135L16.4167 8.635ZM12.1667 13.6587C11.7109 13.6587 11.3205 13.4963 10.9955 13.1713C10.6705 12.8463 10.508 12.4558 10.508 12C10.508 11.5442 10.6705 11.1537 10.9955 10.8287C11.3205 10.5037 11.7109 10.3413 12.1667 10.3413C12.6226 10.3413 13.013 10.5037 13.338 10.8287C13.663 11.1537 13.8255 11.5442 13.8255 12C13.8255 12.4558 13.663 12.8463 13.338 13.1713C13.013 13.4963 12.6226 13.6587 12.1667 13.6587Z" fill="#111112"/>
</svg>
