<svg width="16" height="16" viewBox="0 0 16 16" fill="none" xmlns="http://www.w3.org/2000/svg">
<path d="M1 15V10.625H1.875V13.5055L5.025 10.3555L5.6445 10.975L2.4945 14.125H5.375V15H1ZM10.625 15V14.125H13.5055L10.3555 10.975L10.975 10.3555L14.125 13.5055V10.625H15V15H10.625ZM5.025 5.6445L1.875 2.4945V5.375H1V1H5.375V1.875H2.4945L5.6445 5.025L5.025 5.6445ZM10.975 5.6445L10.3555 5.025L13.5055 1.875H10.625V1H15V5.375H14.125V2.4945L10.975 5.6445ZM8 9.16113C7.68092 9.16113 7.40762 9.04738 7.18012 8.81988C6.95262 8.59238 6.83888 8.31908 6.83888 8C6.83888 7.68092 6.95262 7.40762 7.18012 7.18012C7.40762 6.95262 7.68092 6.83888 8 6.83888C8.31908 6.83888 8.59238 6.95262 8.81988 7.18012C9.04738 7.40762 9.16113 7.68092 9.16113 8C9.16112 8.31908 9.04738 8.59238 8.81988 8.81988C8.59238 9.04738 8.31908 9.16113 8 9.16113Z" fill="#111112"/>
</svg>
