<svg width="17" height="16" viewBox="0 0 17 16" fill="none" xmlns="http://www.w3.org/2000/svg">
<path d="M2.17979 15L1.58325 14.4035L4.61647 11.3702H1.84276V10.5277H6.05557V14.7405H5.21301V11.9668L2.17979 15ZM14.9867 15L11.9535 11.9668V14.7405H11.1109V10.5277H15.3237V11.3702H12.55L15.5833 14.4035L14.9867 15ZM1.84276 5.47232V4.62975H4.61647L1.58325 1.59653L2.17979 1L5.21301 4.03322V1.25951H6.05557V5.47232H1.84276ZM11.1109 5.47232V1.25951H11.9535V4.03322L14.9867 1L15.5833 1.59653L12.55 4.62975H15.3237V5.47232H11.1109ZM8.58325 9.11808C8.276 9.11808 8.01284 9.00855 7.79377 8.78948C7.57471 8.57041 7.46517 8.30725 7.46517 8C7.46517 7.69275 7.57471 7.42958 7.79377 7.21052C8.01284 6.99145 8.276 6.88192 8.58325 6.88192C8.89051 6.88192 9.15367 6.99145 9.37273 7.21052C9.5918 7.42958 9.70133 7.69275 9.70133 8C9.70133 8.30725 9.5918 8.57041 9.37273 8.78948C9.15367 9.00855 8.89051 9.11808 8.58325 9.11808Z" fill="#111112"/>
</svg>
