<svg width="25" height="24" viewBox="0 0 25 24" fill="none" xmlns="http://www.w3.org/2000/svg">
<path d="M3.60219 22L2.75 21.1478L7.08317 16.8146H3.12073V15.611H9.13902V21.6293H7.93536V17.6668L3.60219 22ZM21.8978 22L17.5646 17.6668V21.6293H16.361V15.611H22.3793V16.8146H18.4168L22.75 21.1478L21.8978 22ZM3.12073 8.38902V7.18536H7.08317L2.75 2.85219L3.60219 2L7.93536 6.33317V2.37073H9.13902V8.38902H3.12073ZM16.361 8.38902V2.37073H17.5646V6.33317L21.8978 2L22.75 2.85219L18.4168 7.18536H22.3793V8.38902H16.361ZM12.75 13.5973C12.3111 13.5973 11.9351 13.4408 11.6222 13.1278C11.3092 12.8149 11.1527 12.4389 11.1527 12C11.1527 11.5611 11.3092 11.1851 11.6222 10.8722C11.9351 10.5592 12.3111 10.4027 12.75 10.4027C13.1889 10.4027 13.5649 10.5592 13.8778 10.8722C14.1908 11.1851 14.3473 11.5611 14.3473 12C14.3473 12.4389 14.1908 12.8149 13.8778 13.1278C13.5649 13.4408 13.1889 13.5973 12.75 13.5973Z" fill="#111112"/>
</svg>
