<svg width="25" height="24" viewBox="0 0 25 24" fill="none" xmlns="http://www.w3.org/2000/svg">
<path d="M16.8748 3.24984C18.0342 3.25331 19.1451 3.71539 19.9648 4.53517C20.7846 5.35495 21.2467 6.46582 21.2502 7.62516V16.3748C21.2467 17.5342 20.7846 18.6451 19.9648 19.4648C19.1451 20.2846 18.0342 20.7467 16.8748 20.7502H8.12516C6.96582 20.7467 5.85495 20.2846 5.03517 19.4648C4.21539 18.6451 3.75331 17.5342 3.74984 16.3748V7.62516C3.75331 6.46582 4.21539 5.35495 5.03517 4.53517C5.85495 3.71539 6.96582 3.25331 8.12516 3.24984H16.8748ZM16.8748 1.5H8.12516C4.75625 1.5 2 4.25625 2 7.62516V16.3748C2 19.7437 4.75625 22.5 8.12516 22.5H16.8748C20.2437 22.5 23 19.7437 23 16.3748V7.62516C23 4.25625 20.2437 1.5 16.8748 1.5Z" fill="#111112"/>
<path d="M18.1873 7.62515C17.9277 7.62515 17.6739 7.54818 17.4581 7.40396C17.2422 7.25974 17.074 7.05475 16.9747 6.81492C16.8753 6.5751 16.8493 6.3112 16.9 6.0566C16.9506 5.802 17.0756 5.56813 17.2592 5.38458C17.4427 5.20102 17.6766 5.07602 17.9312 5.02537C18.1858 4.97473 18.4497 5.00072 18.6895 5.10006C18.9294 5.1994 19.1343 5.36763 19.2786 5.58347C19.4228 5.79931 19.4998 6.05306 19.4998 6.31265C19.5001 6.48512 19.4664 6.65596 19.4006 6.81536C19.3348 6.97477 19.2381 7.11961 19.1162 7.24156C18.9942 7.36351 18.8494 7.46017 18.69 7.526C18.5306 7.59183 18.3597 7.62552 18.1873 7.62515Z" fill="#111112"/>
<path d="M12.5 8.49984C13.1923 8.49984 13.869 8.70512 14.4446 9.08973C15.0202 9.47433 15.4688 10.021 15.7337 10.6605C15.9986 11.3001 16.068 12.0039 15.9329 12.6828C15.7978 13.3618 15.4645 13.9855 14.975 14.475C14.4855 14.9645 13.8618 15.2978 13.1828 15.4329C12.5039 15.568 11.8001 15.4986 11.1606 15.2337C10.521 14.9688 9.97433 14.5202 9.58973 13.9446C9.20513 13.369 8.99985 12.6923 8.99985 12C9.00084 11.072 9.36992 10.1823 10.0261 9.52611C10.6823 8.86992 11.572 8.50084 12.5 8.49984ZM12.5 6.75C11.4617 6.75 10.4466 7.05791 9.58326 7.63478C8.7199 8.21166 8.04699 9.0316 7.64963 9.99091C7.25227 10.9502 7.14831 12.0058 7.35088 13.0242C7.55345 14.0426 8.05347 14.9781 8.78769 15.7123C9.52192 16.4465 10.4574 16.9466 11.4758 17.1491C12.4942 17.3517 13.5498 17.2477 14.5091 16.8504C15.4684 16.453 16.2883 15.7801 16.8652 14.9167C17.4421 14.0534 17.75 13.0384 17.75 12C17.75 10.6076 17.1969 9.27226 16.2123 8.28769C15.2277 7.30312 13.8924 6.75 12.5 6.75Z" fill="#111112"/>
</svg>
