<svg width="25" height="24" viewBox="0 0 25 24" fill="none" xmlns="http://www.w3.org/2000/svg">
<g clip-path="url(#clip0_7690_7896)">
<path d="M14.5 19H10.5C8.37827 19 6.34344 18.1571 4.84315 16.6569C3.34285 15.1566 2.5 13.1217 2.5 11V6H6.5V11C6.5 12.0609 6.92143 13.0783 7.67157 13.8284C8.42172 14.5786 9.43913 15 10.5 15V6H14.5V10.5L14.53 10.496C15.626 10.3592 16.6343 9.82686 17.3654 8.99892C18.0965 8.17098 18.5 7.10452 18.5 6H22.5L22.158 7.711C21.9532 8.73509 21.5171 9.69886 20.8832 10.5288C20.2493 11.3588 19.4341 12.033 18.5 12.5V12.5C19.4083 12.8026 20.2186 13.3439 20.846 14.0671C21.4734 14.7904 21.8947 15.669 22.066 16.611L22.5 19H18.5C18.5 17.8955 18.0965 16.829 17.3654 16.0011C16.6343 15.1731 15.626 14.6408 14.53 14.504V19.004L14.5 19Z" stroke="#111112" stroke-width="2" stroke-linecap="round" stroke-linejoin="round"/>
</g>
<defs>
<clipPath id="clip0_7690_7896">
<rect width="24" height="24" fill="white" transform="translate(0.5)"/>
</clipPath>
</defs>
</svg>
