<svg width="25" height="25" viewBox="0 0 25 25" fill="none" xmlns="http://www.w3.org/2000/svg">
<path d="M10.3639 17.3565C12.275 17.3565 13.8961 16.6884 15.2272 15.352C16.5598 14.0164 17.2261 12.394 17.2261 10.4849C17.2261 8.57581 16.5587 6.95345 15.2239 5.61782C13.8891 4.28219 12.2687 3.61253 10.3628 3.60883C8.45685 3.60513 6.83426 4.27331 5.495 5.61338C4.15574 6.95345 3.48611 8.57581 3.48611 10.4805C3.48611 12.3851 4.155 14.0082 5.49278 15.3498C6.82982 16.6869 8.45352 17.3565 10.3639 17.3565ZM9.24167 13.5261L14.5161 8.23173L13.7239 7.43923L9.24278 11.9423L6.98833 9.69685L6.19611 10.4827L9.24167 13.5261ZM10.3661 18.4654C8.15574 18.4654 6.2713 17.6869 4.71278 16.1301C3.15426 14.5732 2.375 12.6907 2.375 10.4827C2.375 8.27465 3.15426 6.39219 4.71278 4.83531C6.2713 3.27844 8.15574 2.5 10.3661 2.5C12.5765 2.5 14.458 3.27844 16.0106 4.83531C17.5631 6.39219 18.3387 8.27465 18.3372 10.4827C18.3372 11.4883 18.1643 12.4351 17.8183 13.323C17.4731 14.211 16.9972 15.0061 16.3906 15.7083L22.375 21.6931L21.6106 22.5L15.5972 16.4997C14.895 17.1205 14.0991 17.6033 13.2094 17.9481C12.3206 18.2937 11.3728 18.4654 10.3661 18.4654Z" fill="#111112"/>
</svg>
