<svg width="25" height="25" viewBox="0 0 25 25" fill="none" xmlns="http://www.w3.org/2000/svg">
<path d="M21.5131 22.5012L13.8686 14.8567C13.2582 15.3768 12.5563 15.7792 11.7628 16.0641C10.9693 16.3489 10.1717 16.4913 9.37006 16.4913C7.41518 16.4913 5.76062 15.8146 4.40637 14.4612C3.05212 13.1077 2.375 11.4536 2.375 9.49872C2.375 7.54385 3.05131 5.88888 4.40393 4.53382C5.75655 3.17876 7.4103 2.50041 9.36517 2.49878C11.32 2.49715 12.9754 3.17428 14.3313 4.53016C15.6872 5.88603 16.3651 7.541 16.3651 9.49506C16.3651 10.3431 16.215 11.1639 15.9146 11.9574C15.6143 12.7509 15.2196 13.4296 14.7305 13.9936L22.375 21.6369L21.5131 22.5012ZM9.37128 15.2693C10.9908 15.2693 12.3581 14.7118 13.4731 13.5969C14.5881 12.4819 15.1456 11.1142 15.1456 9.49384C15.1456 7.87346 14.5881 6.50619 13.4731 5.39202C12.3581 4.27786 10.9908 3.72037 9.37128 3.71956C7.75171 3.71875 6.38403 4.27623 5.26824 5.39202C4.15245 6.50782 3.59496 7.87509 3.59578 9.49384C3.59659 11.1126 4.15408 12.4799 5.26824 13.5957C6.38241 14.7114 7.74968 15.2689 9.37006 15.2681" fill="#111112"/>
</svg>
