<svg width="25" height="25" viewBox="0 0 25 25" fill="none" xmlns="http://www.w3.org/2000/svg">
<path d="M9.24167 13.5272L14.5161 8.23062L13.7239 7.43923L9.24278 11.9434L6.98833 9.69796L6.19611 10.4827L9.24167 13.5272ZM10.3661 18.4665C8.15574 18.4665 6.2713 17.688 4.71278 16.1312C3.15426 14.5743 2.375 12.6915 2.375 10.4827C2.375 8.27391 3.15426 6.39145 4.71278 4.83531C6.2713 3.27918 8.15574 2.50074 10.3661 2.5C12.5765 2.49926 14.458 3.2777 16.0106 4.83531C17.5631 6.39293 18.3387 8.27539 18.3372 10.4827C18.3372 11.4905 18.1643 12.4377 17.8183 13.3241C17.4731 14.2121 16.9972 15.0068 16.3906 15.7083L22.375 21.6931L21.6106 22.5L15.5972 16.4997C14.895 17.1205 14.0998 17.6033 13.2117 17.9481C12.3228 18.2937 11.3735 18.4665 10.3661 18.4665Z" fill="#111112"/>
</svg>
