<svg width="24" height="25" viewBox="0 0 24 25" fill="none" xmlns="http://www.w3.org/2000/svg">
<path d="M8.90429 11.6627C8.45 11.6627 8.07429 11.5048 7.77714 11.1892C7.48 10.8736 7.36381 10.4986 7.42857 10.0641L7.86571 6.80996C8.00095 5.84858 8.46429 5.05635 9.25572 4.43326C10.0471 3.81018 10.9619 3.4991 12 3.5C13.0381 3.50091 13.9529 3.81245 14.7443 4.43462C15.5357 5.0568 15.999 5.84903 16.1343 6.81132L16.5714 10.0669C16.6352 10.4995 16.519 10.8736 16.2229 11.1892C15.9267 11.5048 15.551 11.6622 15.0957 11.6613L8.90429 11.6627ZM2 21.4986V19.2607C2 18.6993 2.17143 18.1742 2.51429 17.6853C2.8581 17.1956 3.32 16.8155 3.9 16.5453C5.24857 15.9294 6.59809 15.4678 7.94857 15.1603C9.29809 14.852 10.6486 14.6978 12 14.6978C13.3514 14.6978 14.7024 14.852 16.0529 15.1603C17.4033 15.4687 18.7519 15.9304 20.0986 16.5453C20.6795 16.8155 21.1414 17.1956 21.4843 17.6853C21.8281 18.1742 22 18.6993 22 19.2607V21.5L2 21.4986Z" fill="#111112"/>
</svg>
