<svg width="24" height="25" viewBox="0 0 24 25" fill="none" xmlns="http://www.w3.org/2000/svg">
<path d="M8.90429 11.6627C8.45476 11.6627 8.08048 11.5048 7.78143 11.1892C7.48238 10.8736 7.36476 10.4986 7.42857 10.0641L7.86571 6.80996C8.00095 5.84858 8.46429 5.05635 9.25572 4.43326C10.0471 3.81018 10.9619 3.4991 12 3.5C13.0381 3.50091 13.9529 3.81245 14.7443 4.43462C15.5357 5.0568 15.999 5.84903 16.1343 6.81132L16.5714 10.0669C16.6352 10.4995 16.5176 10.8736 16.2186 11.1892C15.9195 11.5048 15.5452 11.6622 15.0957 11.6613L8.90429 11.6627ZM8.82143 10.3022H15.1786L14.7143 7.03715C14.619 6.40228 14.3157 5.88077 13.8043 5.47264C13.2929 5.06451 12.6914 4.86044 12 4.86044C11.3086 4.86044 10.7076 5.06451 10.1971 5.47264C9.68667 5.88077 9.38286 6.40228 9.28572 7.03715L8.82143 10.3022ZM2 21.4986V19.2607C2 18.6993 2.17143 18.1742 2.51429 17.6853C2.8581 17.1956 3.32 16.8155 3.9 16.5453C5.24857 15.9294 6.59809 15.4678 7.94857 15.1603C9.29809 14.852 10.6486 14.6978 12 14.6978C13.3514 14.6978 14.7024 14.852 16.0529 15.1603C17.4033 15.4687 18.7519 15.9304 20.0986 16.5453C20.6795 16.8155 21.1414 17.1956 21.4843 17.6853C21.8281 18.1742 22 18.6993 22 19.2607V21.5L2 21.4986ZM3.42857 20.1382H20.5714V19.2594C20.5714 18.9582 20.469 18.6748 20.2643 18.4091C20.0605 18.1442 19.7781 17.9202 19.4171 17.737C18.2419 17.1947 17.0295 16.7793 15.78 16.4909C14.5305 16.2024 13.2705 16.0582 12 16.0582C10.7295 16.0582 9.46952 16.2024 8.22 16.4909C6.97048 16.7793 5.7581 17.1947 4.58286 17.737C4.22095 17.9202 3.93857 18.1442 3.73571 18.4091C3.53095 18.6748 3.42857 18.9587 3.42857 19.2607V20.1382Z" fill="#111112"/>
</svg>
