<svg width="25" height="25" viewBox="0 0 25 25" fill="none" xmlns="http://www.w3.org/2000/svg">
<path d="M18.4453 17.9346V14.5433H15.4042V13.4128H18.4453V10.0215H19.4589V13.4128H22.5V14.5433H19.4589V17.9346H18.4453ZM11.6232 21.5L10.4513 20.3221C8.91054 18.7493 7.62688 17.3954 6.60035 16.2604C5.57383 15.1254 4.75849 14.116 4.15433 13.232C3.54883 12.348 3.12173 11.5393 2.87304 10.806C2.62435 10.0728 2.5 9.33081 2.5 8.5802C2.5 7.14228 2.93791 5.9361 3.81374 4.96166C4.68956 3.98722 5.77217 3.5 7.06158 3.5C7.95362 3.5 8.78991 3.75322 9.57045 4.25966C10.351 4.76609 11.0352 5.50465 11.6232 6.47532C12.2111 5.50465 12.8953 4.76609 13.6759 4.25966C14.4571 3.75322 15.2934 3.5 16.1847 3.5C17.4127 3.5 18.4476 3.94163 19.2897 4.82488C20.131 5.70813 20.6051 6.7926 20.7119 8.07828C20.4591 7.97504 20.1871 7.89402 19.8958 7.83524C19.6053 7.77646 19.2968 7.74706 18.9703 7.74706C17.4201 7.74706 16.1003 8.34997 15.0109 9.55577C13.9215 10.7616 13.3772 12.2357 13.3779 13.9781C13.3779 14.7543 13.5063 15.5045 13.7631 16.2288C14.0205 16.953 14.3922 17.6041 14.8781 18.1822C14.5186 18.5462 14.1232 18.949 13.6921 19.3906C13.2609 19.8322 12.8274 20.2772 12.3915 20.7256L11.6232 21.5Z" fill="#111112"/>
</svg>
