<svg width="25" height="25" viewBox="0 0 25 25" fill="none" xmlns="http://www.w3.org/2000/svg">
<path d="M11.8732 21.5L10.7013 20.3222C9.16054 18.7494 7.87688 17.3956 6.85035 16.2607C5.82383 15.1258 5.00849 14.1164 4.40433 13.2325C3.79883 12.3485 3.37173 11.5399 3.12304 10.8067C2.87435 10.0735 2.75 9.33158 2.75 8.58101C2.75 7.14318 3.18791 5.93708 4.06374 4.9627C4.93956 3.98832 6.02217 3.50113 7.31158 3.50113C8.20362 3.50113 9.03991 3.75546 9.82045 4.26413C10.601 4.7728 11.2852 5.51243 11.8732 6.48304C12.4611 5.51243 13.1453 4.7728 13.9259 4.26413C14.7064 3.75546 15.5427 3.50075 16.4347 3.5C17.6329 3.5 18.698 3.96873 19.6299 4.90618C20.5618 5.84363 21.0278 7.06066 21.0278 8.55727C21.0278 8.89412 20.9946 9.24454 20.9284 9.60852C20.8622 9.97249 20.7628 10.3417 20.6304 10.7163H19.5285C19.6779 10.3048 19.7877 9.91598 19.858 9.54974C19.9282 9.18274 19.9634 8.83836 19.9634 8.51658C19.9634 7.19028 19.5603 6.211 18.7541 5.57875C17.9485 4.94574 17.1754 4.62924 16.4347 4.62924C15.6123 4.62924 14.8656 4.88847 14.1945 5.40693C13.5234 5.9254 12.8855 6.71025 12.2807 7.76149H11.4657C10.8507 6.69668 10.2063 5.90882 9.53256 5.39789C8.8588 4.88696 8.11847 4.63112 7.31158 4.63037C6.32223 4.63037 5.48357 5.00603 4.79562 5.75735C4.10766 6.50867 3.76368 7.44989 3.76368 8.58101C3.76368 9.21703 3.88195 9.86285 4.11847 10.5185C4.355 11.1741 4.77737 11.9277 5.38558 12.7792C5.99379 13.6307 6.82163 14.6323 7.86911 15.7837C8.91658 16.9352 10.2513 18.3304 11.8732 19.9695C12.3908 19.4495 12.8997 18.9356 13.3998 18.4277C13.8999 17.9213 14.3469 17.4578 14.7409 17.0373L14.8524 17.1616L15.1017 17.4408L15.3531 17.72L15.4646 17.8444C15.0659 18.2641 14.6219 18.7193 14.1327 19.2099C13.6434 19.7005 13.1464 20.2057 12.6415 20.7257L11.8732 21.5ZM15.6542 14.5437V13.4133H22.75V14.5437H15.6542Z" fill="#111112"/>
</svg>
