<svg width="25" height="25" viewBox="0 0 25 25" fill="none" xmlns="http://www.w3.org/2000/svg">
<path d="M12.5 21.5L11.6578 20.7296C9.84445 19.053 8.34445 17.6178 7.15778 16.4241C5.97185 15.2297 5.03556 14.1762 4.34889 13.2637C3.66223 12.3512 3.18223 11.5264 2.90889 10.7893C2.63556 10.0522 2.49926 9.30955 2.5 8.56123C2.5 7.13059 2.98 5.92939 3.94 4.95764C4.9 3.98588 6.08667 3.5 7.5 3.5C8.47778 3.5 9.39445 3.75306 10.25 4.25918C11.1056 4.76531 11.8556 5.50162 12.5 6.46813C13.1444 5.50162 13.8944 4.76531 14.75 4.25918C15.6056 3.75306 16.5222 3.5 17.5 3.5C18.9133 3.5 20.1 3.98588 21.06 4.95764C22.02 5.92939 22.5 7.13059 22.5 8.56123C22.5 9.30805 22.3637 10.0504 22.0911 10.7882C21.8178 11.5275 21.3378 12.353 20.6511 13.2648C19.9644 14.1766 19.0315 15.2297 17.8522 16.4241C16.673 17.6178 15.1693 19.053 13.3411 20.7296L12.5 21.5Z" fill="#111112"/>
</svg>
