<svg width="25" height="25" viewBox="0 0 25 25" fill="none" xmlns="http://www.w3.org/2000/svg">
<path d="M18.5515 16.7638L16.4334 14.3742L17.1397 13.5739L18.5515 15.179L22.0436 11.1944L22.75 11.9721L18.5515 16.7638ZM11.6662 21.5L10.521 20.3222C9.01511 18.7494 7.76057 17.3956 6.75733 16.2607C5.75409 15.1258 4.95725 14.1164 4.3668 13.2325C3.77503 12.3485 3.35762 11.5399 3.11457 10.8067C2.87152 10.0735 2.75 9.33158 2.75 8.58101C2.75 7.14318 3.17798 5.93708 4.03393 4.9627C4.88989 3.98832 5.94794 3.50113 7.20809 3.50113C8.0799 3.50113 8.89722 3.75546 9.66005 4.26413C10.4229 4.7728 11.0916 5.51243 11.6662 6.48304C12.2408 5.51243 12.9095 4.7728 13.6723 4.26413C14.4352 3.75546 15.2525 3.50075 16.1243 3.5C17.2715 3.5 18.245 3.90693 19.0448 4.7208C19.8453 5.53466 20.334 6.54785 20.511 7.76036H19.4926C19.3354 6.83346 18.9425 6.07988 18.3137 5.49962C17.6849 4.91937 16.9551 4.62924 16.1243 4.62924C15.3205 4.62924 14.5907 4.88847 13.9349 5.40693C13.279 5.9254 12.6559 6.71025 12.0654 7.76149H11.2689C10.6679 6.69668 10.0382 5.90882 9.37968 5.39789C8.7212 4.88696 7.99734 4.63112 7.20809 4.63037C6.24184 4.63037 5.42221 5.00603 4.74921 5.75735C4.07686 6.50942 3.74069 7.45064 3.74069 8.58101C3.74069 9.21703 3.85627 9.86285 4.08743 10.5185C4.31859 11.1741 4.73137 11.9277 5.32579 12.7792C5.9202 13.6307 6.72926 14.6323 7.75297 15.7837C8.77668 16.9352 10.0811 18.3304 11.6662 19.9695C12.1721 19.4495 12.6694 18.9356 13.1582 18.4277C13.6469 17.9213 14.0838 17.4578 14.4688 17.0373L14.5778 17.1616L14.8215 17.4408L15.0672 17.72L15.1762 17.8444C14.7865 18.2641 14.3526 18.7193 13.8744 19.2099C13.3963 19.7005 12.9105 20.2057 12.4171 20.7257L11.6662 21.5Z" fill="#111112"/>
</svg>
