<svg width="25" height="25" viewBox="0 0 25 25" fill="none" xmlns="http://www.w3.org/2000/svg">
<path d="M11.4162 21.5L10.271 20.3221C8.76511 18.7493 7.51057 17.3954 6.50733 16.2604C5.50409 15.1254 4.70725 14.116 4.1168 13.232C3.52503 12.348 3.10762 11.5393 2.86457 10.806C2.62152 10.0728 2.5 9.33081 2.5 8.5802C2.5 7.14228 2.92798 5.9361 3.78393 4.96166C4.63989 3.98722 5.69794 3.5 6.95809 3.5C7.8299 3.5 8.64722 3.75322 9.41005 4.25966C10.1729 4.76609 10.8416 5.50465 11.4162 6.47532C11.9908 5.50465 12.6595 4.76609 13.4223 4.25966C14.1858 3.75322 15.0031 3.5 15.8743 3.5C17.0743 3.5 18.0858 3.94163 18.9088 4.82488C19.731 5.70813 20.1943 6.7926 20.2987 8.07828C20.0061 7.97051 19.7099 7.8944 19.41 7.84993C19.1109 7.80472 18.8094 7.78211 18.5055 7.78211C17.0638 7.79718 15.8109 8.36994 14.7469 9.50038C13.6829 10.6308 13.1506 12.1091 13.1499 13.9351C13.1499 14.6797 13.2694 15.4243 13.5085 16.1688C13.7476 16.9134 14.1109 17.5845 14.5983 18.1822C14.2463 18.5462 13.8599 18.949 13.4392 19.3906C13.0185 19.8322 12.5944 20.2772 12.1671 20.7256L11.4162 21.5ZM18.3015 16.7635L16.1834 14.3737L16.8897 13.5734L18.3015 15.1786L21.7936 11.1712L22.5 11.9715L18.3015 16.7635Z" fill="#111112"/>
</svg>
