<svg width="25" height="25" viewBox="0 0 25 25" fill="none" xmlns="http://www.w3.org/2000/svg">
<path d="M12.7499 21.5L11.8974 20.7296C10.0618 19.053 8.54347 17.6178 7.34227 16.4241C6.14182 15.2297 5.19405 14.1762 4.49898 13.2637C3.8039 12.3512 3.31802 11.5264 3.04134 10.7893C2.76466 10.0522 2.62669 9.30955 2.62744 8.56123C2.62744 7.13059 3.11332 5.92939 4.08508 4.95764C5.05684 3.98588 6.25804 3.5 7.68868 3.5C8.67843 3.5 9.60633 3.75306 10.4724 4.25918C11.3384 4.76531 12.0976 5.50162 12.7499 6.46813C13.4023 5.50162 14.1614 4.76531 15.0275 4.25918C15.8935 3.75306 16.8214 3.5 17.8111 3.5C19.2418 3.5 20.443 3.98588 21.4147 4.95764C22.3865 5.92939 22.8724 7.13059 22.8724 8.56123C22.8724 9.30805 22.7344 10.0504 22.4585 10.7882C22.1818 11.5275 21.6959 12.353 21.0009 13.2648C20.3058 14.1766 19.3614 15.2297 18.1677 16.4241C16.974 17.6178 15.4519 19.053 13.6013 20.7296L12.7499 21.5ZM12.7499 19.9771C14.5495 18.35 16.0303 16.9569 17.1926 15.7977C18.3548 14.6385 19.2733 13.6318 19.9481 12.7778C20.6229 11.9238 21.0916 11.1683 21.354 10.5115C21.6164 9.85316 21.7477 9.20307 21.7477 8.56123C21.7477 7.43652 21.3728 6.49925 20.6229 5.74944C19.8731 4.99962 18.9359 4.62472 17.8111 4.62472C16.9159 4.62472 16.0896 4.8804 15.3323 5.39178C14.575 5.90315 13.8979 6.67283 13.301 7.70082H12.2011C11.5885 6.65859 10.9072 5.88515 10.1574 5.38053C9.40762 4.87666 8.58508 4.62472 7.6898 4.62472C6.58008 4.62472 5.64656 4.99962 4.88925 5.74944C4.13194 6.49925 3.75291 7.43652 3.75216 8.56123C3.75216 9.20307 3.88338 9.85316 4.14581 10.5115C4.40825 11.1698 4.87688 11.9253 5.55171 12.7778C6.22654 13.6303 7.14507 14.6332 8.30727 15.7864C9.46948 16.9396 10.9504 18.3365 12.7499 19.9771Z" fill="#111112"/>
</svg>
