<svg width="25" height="24" viewBox="0 0 25 24" fill="none" xmlns="http://www.w3.org/2000/svg">
<path d="M2.66675 22V15.75H3.91675V19.865L8.41675 15.365L9.30175 16.25L4.80175 20.75H8.91675V22H2.66675ZM16.4167 22V20.75H20.5317L16.0317 16.25L16.9167 15.365L21.4167 19.865V15.75H22.6667V22H16.4167ZM8.41675 8.635L3.91675 4.135V8.25H2.66675V2H8.91675V3.25H4.80175L9.30175 7.75L8.41675 8.635ZM16.9167 8.635L16.0317 7.75L20.5317 3.25H16.4167V2H22.6667V8.25H21.4167V4.135L16.9167 8.635ZM12.6667 13.6587C12.2109 13.6587 11.8205 13.4963 11.4955 13.1713C11.1705 12.8463 11.008 12.4558 11.008 12C11.008 11.5442 11.1705 11.1537 11.4955 10.8287C11.8205 10.5037 12.2109 10.3413 12.6667 10.3413C13.1226 10.3413 13.513 10.5037 13.838 10.8287C14.163 11.1537 14.3255 11.5442 14.3255 12C14.3255 12.4558 14.163 12.8463 13.838 13.1713C13.513 13.4963 13.1226 13.6587 12.6667 13.6587Z" fill="#FCFCFF"/>
</svg>
