<svg width="17" height="16" viewBox="0 0 17 16" fill="none" xmlns="http://www.w3.org/2000/svg">
<g clip-path="url(#clip0_7683_6121)">
<path d="M0.5 16V11H1.5V14.292L5.1 10.692L5.808 11.4L2.208 15H5.5V16H0.5ZM11.5 16V15H14.792L11.192 11.4L11.9 10.692L15.5 14.292V11H16.5V16H11.5ZM5.1 5.308L1.5 1.708V5H0.5V0H5.5V1H2.208L5.808 4.6L5.1 5.308ZM11.9 5.308L11.192 4.6L14.792 1H11.5V0H16.5V5H15.5V1.708L11.9 5.308ZM8.5 9.327C8.13533 9.327 7.823 9.197 7.563 8.937C7.303 8.677 7.173 8.36467 7.173 8C7.173 7.63533 7.303 7.323 7.563 7.063C7.823 6.803 8.13533 6.673 8.5 6.673C8.86467 6.673 9.177 6.803 9.437 7.063C9.697 7.323 9.827 7.63533 9.827 8C9.827 8.36467 9.697 8.677 9.437 8.937C9.177 9.197 8.86467 9.327 8.5 9.327Z" fill="#FCFCFF"/>
</g>
<defs>
<clipPath id="clip0_7683_6121">
<rect width="16" height="16" fill="white" transform="translate(0.5)"/>
</clipPath>
</defs>
</svg>
