<svg width="25" height="24" viewBox="0 0 25 24" fill="none" xmlns="http://www.w3.org/2000/svg">
<path d="M3.10219 22L2.25 21.1478L6.58317 16.8146H2.62073V15.611H8.63902V21.6293H7.43536V17.6668L3.10219 22ZM21.3978 22L17.0646 17.6668V21.6293H15.861V15.611H21.8793V16.8146H17.9168L22.25 21.1478L21.3978 22ZM2.62073 8.38902V7.18536H6.58317L2.25 2.85219L3.10219 2L7.43536 6.33317V2.37073H8.63902V8.38902H2.62073ZM15.861 8.38902V2.37073H17.0646V6.33317L21.3978 2L22.25 2.85219L17.9168 7.18536H21.8793V8.38902H15.861ZM12.25 13.5973C11.8111 13.5973 11.4351 13.4408 11.1222 13.1278C10.8092 12.8149 10.6527 12.4389 10.6527 12C10.6527 11.5611 10.8092 11.1851 11.1222 10.8722C11.4351 10.5592 11.8111 10.4027 12.25 10.4027C12.6889 10.4027 13.0649 10.5592 13.3778 10.8722C13.6908 11.1851 13.8473 11.5611 13.8473 12C13.8473 12.4389 13.6908 12.8149 13.3778 13.1278C13.0649 13.4408 12.6889 13.5973 12.25 13.5973Z" fill="#FCFCFF"/>
</svg>
