<svg width="17" height="16" viewBox="0 0 17 16" fill="none" xmlns="http://www.w3.org/2000/svg">
<g clip-path="url(#clip0_7666_4394)">
<path d="M0.765005 16L0.083252 15.3182L3.54979 11.8517H0.379834V10.8888H5.19447V15.7034H4.23154V12.5335L0.765005 16ZM15.4015 16L11.935 12.5335V15.7034H10.972V10.8888H15.7867V11.8517H12.6167L16.0833 15.3182L15.4015 16ZM0.379834 5.11122V4.14829H3.54979L0.083252 0.681753L0.765005 0L4.23154 3.46654V0.296582H5.19447V5.11122H0.379834ZM10.972 5.11122V0.296582H11.935V3.46654L15.4015 0L16.0833 0.681753L12.6167 4.14829H15.7867V5.11122H10.972ZM8.08325 9.2778C7.7321 9.2778 7.43135 9.15262 7.18099 8.90226C6.93063 8.6519 6.80545 8.35115 6.80545 8C6.80545 7.64885 6.93063 7.3481 7.18099 7.09774C7.43135 6.84738 7.7321 6.7222 8.08325 6.7222C8.4344 6.7222 8.73515 6.84738 8.98551 7.09774C9.23588 7.3481 9.36106 7.64885 9.36106 8C9.36106 8.35115 9.23588 8.6519 8.98551 8.90226C8.73515 9.15262 8.4344 9.2778 8.08325 9.2778Z" fill="#FCFCFF"/>
</g>
<defs>
<clipPath id="clip0_7666_4394">
<rect width="16" height="16" fill="white" transform="translate(0.083252)"/>
</clipPath>
</defs>
</svg>
