<svg width="25" height="25" viewBox="0 0 25 25" fill="none" xmlns="http://www.w3.org/2000/svg">
<path d="M8.41841 23.5C7.93794 23.5 7.533 23.329 7.20358 22.9871C6.87416 22.6452 6.70983 22.2253 6.71059 21.7273C6.71135 21.2294 6.87568 20.8091 7.20358 20.4664C7.533 20.1252 7.93794 19.9547 8.41841 19.9547C8.89888 19.9547 9.30344 20.1252 9.6321 20.4664C9.96076 20.8075 10.1255 21.2278 10.1262 21.7273C10.127 22.2268 9.96228 22.6468 9.6321 22.9871C9.30192 23.3275 8.89736 23.4984 8.41841 23.5ZM19.1025 23.5C18.6228 23.5 18.2183 23.329 17.8888 22.9871C17.5594 22.6452 17.3947 22.2253 17.3947 21.7273C17.3947 21.2294 17.5594 20.8091 17.8888 20.4664C18.2183 20.1252 18.6228 19.9547 19.1025 19.9547C19.5822 19.9547 19.9872 20.1252 20.3174 20.4664C20.646 20.8083 20.8104 21.2286 20.8104 21.7273C20.8104 22.2253 20.646 22.6452 20.3174 22.9871C19.988 23.329 19.583 23.5 19.1025 23.5ZM6.23695 3.86356H21.0608C21.5557 3.86356 21.9277 4.07313 22.1766 4.49226C22.4271 4.91061 22.4404 5.34196 22.2165 5.78631L18.9625 11.941C18.7978 12.2286 18.5837 12.4543 18.3204 12.6182C18.057 12.7821 17.7674 12.864 17.4516 12.864H9.32014L7.9368 15.4994C7.81991 15.6813 7.81612 15.8783 7.92542 16.0902C8.03472 16.3022 8.19905 16.4085 8.41841 16.4093H20.8104V17.5911H8.41841C7.75426 17.5911 7.25861 17.3004 6.93147 16.719C6.60432 16.1375 6.59635 15.5537 6.90756 14.9676L8.61993 11.8004L4.43349 2.68178H2.375V1.5H5.15533L6.23695 3.86356Z" fill="#111112"/>
</svg>
