<svg width="25" height="25" viewBox="0 0 25 25" fill="none" xmlns="http://www.w3.org/2000/svg">
<path d="M10.548 7.4089V6.22712H15.9968V7.4089H10.548ZM8.15934 23.5C7.69947 23.5 7.31189 23.329 6.99659 22.9871C6.68129 22.6452 6.524 22.2253 6.52473 21.7273C6.52546 21.2294 6.68274 20.8091 6.99659 20.4664C7.31189 20.1252 7.69947 19.9547 8.15934 19.9547C8.61921 19.9547 9.00643 20.1252 9.321 20.4664C9.63557 20.8075 9.79322 21.2278 9.79395 21.7273C9.79468 22.2268 9.63703 22.6468 9.321 22.9871C9.00498 23.3275 8.61776 23.4984 8.15934 23.5ZM18.3855 23.5C17.9263 23.5 17.5391 23.329 17.2238 22.9871C16.9085 22.6452 16.7509 22.2253 16.7509 21.7273C16.7509 21.2294 16.9085 20.8091 17.2238 20.4664C17.5391 20.1252 17.9263 19.9547 18.3855 19.9547C18.8446 19.9547 19.2322 20.1252 19.5482 20.4664C19.8628 20.8083 20.0201 21.2286 20.0201 21.7273C20.0201 22.2253 19.8628 22.6452 19.5482 22.9871C19.2329 23.329 18.8453 23.5 18.3855 23.5ZM2.375 2.68178V1.5H5.04268L9.50626 11.6822H16.7367C16.8624 11.6822 16.9742 11.6479 17.0723 11.5794C17.1697 11.5109 17.2532 11.4163 17.323 11.2958L21.1327 3.86356H22.375L18.2514 11.941C18.0938 12.2286 17.8889 12.4543 17.6368 12.6182C17.3847 12.7821 17.1076 12.864 16.8053 12.864H9.02241L7.69838 15.4994C7.5865 15.6813 7.58287 15.8783 7.68748 16.0902C7.7921 16.3022 7.94938 16.4085 8.15934 16.4093H20.0201V17.5911H8.15934C7.52366 17.5911 7.04817 17.3016 6.73287 16.7225C6.41757 16.1434 6.41103 15.5584 6.71325 14.9676L8.35222 11.8004L4.34525 2.68178H2.375Z" fill="#111112"/>
</svg>
