<svg width="25" height="24" viewBox="0 0 25 24" fill="none" xmlns="http://www.w3.org/2000/svg">
<path d="M12.7275 8.85073V5.48613H9.45831V4.3646H12.7275V1H13.8173V4.3646H17.0865V5.48613H13.8173V8.85073H12.7275ZM8.15934 23C7.69947 23 7.31189 22.8378 6.99659 22.5133C6.68129 22.1888 6.524 21.7902 6.52473 21.3177C6.52546 20.8452 6.68274 20.4463 6.99659 20.121C7.31189 19.7973 7.69947 19.6354 8.15934 19.6354C8.61921 19.6354 9.00643 19.7973 9.321 20.121C9.63557 20.4448 9.79322 20.8437 9.79395 21.3177C9.79468 21.7917 9.63703 22.1903 9.321 22.5133C9.00498 22.8363 8.61776 22.9985 8.15934 23ZM18.3855 23C17.9263 23 17.5391 22.8378 17.2238 22.5133C16.9085 22.1888 16.7509 21.7902 16.7509 21.3177C16.7509 20.8452 16.9085 20.4463 17.2238 20.121C17.5391 19.7973 17.9263 19.6354 18.3855 19.6354C18.8446 19.6354 19.2322 19.7973 19.5482 20.121C19.8628 20.4455 20.0201 20.8444 20.0201 21.3177C20.0201 21.7902 19.8628 22.1888 19.5482 22.5133C19.2329 22.8378 18.8453 23 18.3855 23ZM2.375 3.24307V2.12153H5.04268L9.50626 11.7847H16.7367C16.8624 11.7847 16.9742 11.7521 17.0723 11.6871C17.1697 11.622 17.2532 11.5323 17.323 11.4179L21.1327 4.3646H22.375L18.2514 12.0303C18.0938 12.3032 17.8885 12.5174 17.6357 12.6729C17.3829 12.8284 17.1061 12.9062 16.8053 12.9062H9.02241L7.69838 15.4072C7.5865 15.5799 7.58287 15.7669 7.68748 15.968C7.7921 16.1691 7.94938 16.2701 8.15934 16.2708H20.0201V17.3923H8.15934C7.52366 17.3923 7.04817 17.1176 6.73287 16.568C6.41757 16.0185 6.41103 15.4633 6.71325 14.9025L8.35222 11.8968L4.34525 3.24307H2.375Z" fill="#111112"/>
</svg>
